<svg width="128" height="128" fill="none" xmlns="http://www.w3.org/2000/svg">
  <g clip-path="url(#clip0)">
    <path d="M122.634 86.785c-12.967 30.21-47.196 43.186-74.014 40.974-7.323-.604-22.056-1.82-33.56-12.663-22.092-20.824-18.69-64.351 2.46-89.978C20.242 21.818 39.093-.293 68.47.002 89.98.22 105.076 12.33 106.912 13.838c2.319 1.906 7.433 6.434 12.042 13.62 10.831 16.882 11.783 40.449 3.68 59.327z" fill="url(#paint0_linear)" fill-opacity=".5"/>
    <path d="M21.482 15.69l64.561 1.705c3.562.094 6.425 2.953 6.512 6.504l2.285 93.423c.068 2.778-2.185 5.06-4.973 5.037l-74.032-.614c-2.62-.021-4.712-2.181-4.643-4.791l2.496-93.898c.112-4.179 3.6-7.477 7.794-7.367z" fill="url(#paint1_linear)"/>
    <path d="M26.697 120.422h-.006l-8.277-.325c-2.755-.108-4.938-2.431-4.865-5.179l.331-12.46a.154.154 0 01.154-.149h.005a.154.154 0 01.15.157l-.331 12.46c-.069 2.58 1.98 4.762 4.568 4.864l8.276.326a.153.153 0 01-.005.306zM14.138 98.756h-.004a.154.154 0 01-.15-.158l.053-2.018a.154.154 0 01.308.008l-.053 2.018a.154.154 0 01-.154.15z" fill="#BDD0FB"/>
    <path d="M21.7 14.938c8.785 1.425 39.005 5.911 64.122 4.655a2.037 2.037 0 012.145 1.975l2.505 93.845a2.344 2.344 0 01-2.27 2.402c-10.558.343-54.04 1.6-69.482-.425a1.856 1.856 0 01-1.615-1.878l2.036-98.448a2.204 2.204 0 012.56-2.126z" fill="url(#paint2_linear)"/>
    <path d="M24.143 19.843c8.192 1.329 36.372 5.512 59.794 4.341a1.9 1.9 0 012 1.842l2.337 87.511c.032 1.2-.914 2.2-2.117 2.239-9.846.32-50.392 1.493-64.793-.396a1.73 1.73 0 01-1.506-1.751l1.899-91.803a2.055 2.055 0 012.386-1.983z" fill="#BDD0FB"/>
    <path d="M58.105 3.927c-2.29-1.678-4.318-1.7-5.757-1.318a2.84 2.84 0 00-2.101 2.93l.437 6.714 7.308.841s4.602-5.874.113-9.167zM54.74 9.245a1.824 1.824 0 01-1.778-1.869 1.825 1.825 0 011.874-1.772 1.824 1.824 0 011.779 1.869 1.824 1.824 0 01-1.875 1.772z" fill="url(#paint3_linear)"/>
    <path d="M51.362 9.615a.362.362 0 01-.229-.313l-.069-1.069a.362.362 0 01.338-.384c.2-.014.373.137.386.337l.07 1.07a.362.362 0 01-.496.359zm-.136-2.095a.362.362 0 01-.229-.313l-.052-.812a2.897 2.897 0 012.14-2.982 5.68 5.68 0 012.77-.04c.193.047.317.24.272.434a.363.363 0 01-.436.27 4.96 4.96 0 00-2.419.035A2.171 2.171 0 0051.67 6.35l.052.812a.362.362 0 01-.496.359z" fill="#BDD0FB"/>
    <path d="M40.572 16.317l.09-3.367a2.06 2.06 0 012.186-1.998l23.27 1.41A2.002 2.002 0 0168 14.293l.108 3.24-27.537-1.215z" fill="url(#paint4_linear)"/>
    <path d="M48.37 12.191l1.002.027-1.002-.027zM41.731 15.453a.36.36 0 01-.228-.346l.036-1.362c.015-.56.247-1.08.654-1.465.408-.385.941-.589 1.503-.574l3.682.097a.362.362 0 11-.02.723l-3.682-.097a1.376 1.376 0 00-1.412 1.335l-.036 1.362a.362.362 0 01-.497.327z" fill="#BDD0FB"/>
    <path d="M33.306 14.892l40.73 1.075a3.008 3.008 0 012.9 2.567l.029.2a2.58 2.58 0 01-2.628 2.949l-41.786-1.104a1.678 1.678 0 01-1.632-1.8l.14-1.862a2.193 2.193 0 012.247-2.025z" fill="url(#paint5_linear)"/>
    <path opacity=".57" d="M83.677 104.572c-.007.693-.48 1.256-1.06 1.258l-56.917.217c-.636.002-1.152-.585-1.151-1.313v-.11c0-.727.518-1.318 1.155-1.319l56.938-.09c.58-.001 1.043.56 1.036 1.253l-.001.104zM83.677 110.467c-.007.692-.48 1.256-1.06 1.258l-56.917.216c-.636.003-1.152-.585-1.151-1.312v-.11c0-.728.518-1.318 1.155-1.319l56.938-.091c.58-.001 1.043.561 1.036 1.254l-.001.104zM83.895 62.183c-.007.692-.48 1.255-1.06 1.258l-56.917.216c-.636.003-1.152-.585-1.151-1.312v-.11c0-.728.518-1.318 1.155-1.32l56.938-.09c.58 0 1.043.56 1.036 1.253v.105zM83.895 68.077c-.007.693-.48 1.256-1.06 1.258l-56.917.217c-.636.002-1.152-.585-1.151-1.313v-.11c0-.727.518-1.318 1.155-1.319l56.938-.09c.58-.001 1.043.56 1.036 1.253v.104zM82.681 82.739c-.006.692-.232 1.258-.504 1.263l-26.732.51c-.3.005-.538-.58-.534-1.307v-.11c.005-.727.251-1.32.55-1.325l26.742-.383c.272-.004.486.554.48 1.247l-.002.105zM82.727 88.569c-.007.692-.232 1.258-.504 1.263l-26.732.51c-.3.005-.538-.58-.534-1.307v-.11c.005-.727.25-1.32.55-1.325l26.742-.383c.271-.004.486.554.48 1.247l-.002.105zM82.697 94.008c-.007.693-.233 1.258-.504 1.264l-26.733.51c-.299.005-.538-.58-.534-1.307v-.11c.005-.728.251-1.321.55-1.325l26.742-.384c.272-.003.487.555.48 1.248l-.001.104z" fill="#fff"/>
    <g opacity=".57" fill="#fff">
      <path opacity=".57" d="M38.166 46.522h-2.632v7.335h2.632v-7.335zM42.565 37.03h-2.632v16.827h2.632V37.03zM46.964 49.815H44.33v4.042h2.633v-4.042zM51.362 39.28H48.73v14.577h2.633V39.28zM55.76 41.803h-2.632v12.054h2.633V41.803zM60.16 44.547h-2.632v9.31h2.632v-9.31zM64.558 33.627h-2.632v20.23h2.632v-20.23zM68.957 35.768h-2.632v18.09h2.632v-18.09zM73.356 39.005h-2.632v14.853h2.632V39.005zM77.755 50.19h-2.633v3.667h2.633V50.19zM82.153 43.065h-2.632v10.791h2.632V43.065z"/>
    </g>
    <path opacity=".57" d="M50.466 98.154H25.968a.786.786 0 01-.787-.784V76.555c0-.433.352-.785.787-.785h24.498c.435 0 .787.352.787.785V97.37a.786.786 0 01-.787.784zM32.391 54.16h-7.31a.472.472 0 01-.472-.471V32.58c0-.26.211-.472.472-.472h7.31c.262 0 .473.211.473.471V53.69c0 .26-.211.47-.473.47z" fill="#fff"/>
    <path d="M66.115 66.637c-.289 10.287-1.226 45.773-.779 58.347.047 1.333 1.258 2.402 2.767 2.445 7.467.216 34.839.763 47.052.31 2.543-.094 4.566-1.912 4.619-4.158.254-10.798.814-41.169-.517-55.082-.16-1.667-1.643-2.994-3.529-3.16-8.131-.718-35.62-2.473-46.172-1.869-1.903.11-3.394 1.484-3.44 3.167z" fill="#7D97F4"/>
    <path d="M68.26 71.173v8.718a3.032 3.032 0 003.037 3.027h41.79a3.032 3.032 0 003.037-3.027v-8.718a3.032 3.032 0 00-3.037-3.028h-41.79a3.032 3.032 0 00-3.037 3.028z" fill="#91B3FA"/>
    <path opacity=".2" d="M113.992 71.123c-.369-.381-.876-.6-1.407-.608l-39.104-.62a2 2 0 00-2.024 1.81l-.813 8.647c-.066.708 1.102 1.304 2.592 1.322l38.445.464c1.487.018 2.717-.547 2.729-1.255l.145-8.338a1.99 1.99 0 00-.563-1.422z" fill="#fff"/>
    <path d="M78.707 91.757a2.79 2.79 0 01-2.794 2.785h-3.401a2.79 2.79 0 01-2.794-2.785 2.79 2.79 0 012.794-2.785h3.401a2.79 2.79 0 012.794 2.785z" fill="url(#paint6_linear)"/>
    <path d="M91.341 91.757a2.79 2.79 0 01-2.794 2.785h-3.401a2.79 2.79 0 01-2.794-2.785 2.79 2.79 0 012.794-2.785h3.401a2.79 2.79 0 012.794 2.785z" fill="url(#paint7_linear)"/>
    <path d="M103.49 91.757a2.79 2.79 0 01-2.795 2.785h-3.4a2.79 2.79 0 01-2.795-2.785 2.79 2.79 0 012.794-2.785h3.401a2.79 2.79 0 012.795 2.785z" fill="#DAE3FE"/>
    <path d="M115.804 92.166a2.834 2.834 0 01-2.839 2.83h-3.288a2.834 2.834 0 01-2.839-2.83 2.834 2.834 0 012.839-2.83h3.288a2.835 2.835 0 012.839 2.83z" fill="url(#paint8_linear)"/>
    <path d="M78.707 100.475a2.789 2.789 0 01-2.794 2.785h-3.401a2.789 2.789 0 01-2.794-2.785 2.79 2.79 0 012.794-2.785h3.401a2.79 2.79 0 012.794 2.785z" fill="url(#paint9_linear)"/>
    <path d="M91.341 100.475a2.789 2.789 0 01-2.794 2.785h-3.401a2.789 2.789 0 01-2.794-2.785 2.79 2.79 0 012.794-2.785h3.401a2.79 2.79 0 012.794 2.785z" fill="url(#paint10_linear)"/>
    <path d="M103.49 100.475a2.79 2.79 0 01-2.795 2.785h-3.4a2.789 2.789 0 01-2.795-2.785 2.79 2.79 0 012.794-2.785h3.401a2.79 2.79 0 012.795 2.785z" fill="url(#paint11_linear)"/>
    <path d="M116.124 100.475a2.789 2.789 0 01-2.794 2.785h-3.402a2.789 2.789 0 01-2.794-2.785 2.79 2.79 0 012.794-2.785h3.402a2.79 2.79 0 012.794 2.785z" fill="url(#paint12_linear)"/>
    <path d="M78.707 108.196a2.79 2.79 0 01-2.794 2.785h-3.401a2.79 2.79 0 01-2.794-2.785 2.79 2.79 0 012.794-2.785h3.401a2.79 2.79 0 012.794 2.785z" fill="url(#paint13_linear)"/>
    <path d="M91.341 108.196a2.79 2.79 0 01-2.794 2.785h-3.401a2.79 2.79 0 01-2.794-2.785 2.79 2.79 0 012.794-2.785h3.401a2.79 2.79 0 012.794 2.785z" fill="url(#paint14_linear)"/>
    <path d="M103.49 108.196a2.79 2.79 0 01-2.795 2.785h-3.4a2.79 2.79 0 01-2.795-2.785 2.79 2.79 0 012.794-2.785h3.401a2.79 2.79 0 012.795 2.785z" fill="url(#paint15_linear)"/>
    <path opacity=".63" d="M78.707 116.673a2.79 2.79 0 01-2.794 2.785h-3.401a2.79 2.79 0 01-2.794-2.785 2.789 2.789 0 012.794-2.785h3.401a2.789 2.789 0 012.794 2.785z" fill="url(#paint16_linear)"/>
    <path opacity=".63" d="M91.341 116.673a2.79 2.79 0 01-2.794 2.785h-3.401a2.79 2.79 0 01-2.794-2.785 2.789 2.789 0 012.794-2.785h3.401a2.789 2.789 0 012.794 2.785z" fill="url(#paint17_linear)"/>
    <path opacity=".63" d="M103.49 116.673a2.79 2.79 0 01-2.795 2.785h-3.4a2.79 2.79 0 01-2.795-2.785 2.789 2.789 0 012.794-2.785h3.401a2.79 2.79 0 012.795 2.785z" fill="url(#paint18_linear)"/>
    <path d="M114.909 116.445a3.53 3.53 0 01-3.537 3.525h-.216a3.53 3.53 0 01-3.536-3.525v-6.753a3.53 3.53 0 013.536-3.525h.216a3.53 3.53 0 013.537 3.525v6.753z" fill="#91B3FA"/>
    <path d="M109.539 65.266c6.106 0 11.056-4.934 11.056-11.02 0-6.086-4.95-11.02-11.056-11.02-6.106 0-11.056 4.934-11.056 11.02 0 6.086 4.95 11.02 11.056 11.02z" fill="url(#paint19_linear)"/>
    <path d="M109.539 64.899c5.903 0 10.688-4.77 10.688-10.654 0-5.883-4.785-10.653-10.688-10.653-5.903 0-10.688 4.77-10.688 10.653 0 5.884 4.785 10.654 10.688 10.654z" fill="url(#paint20_linear)"/>
    <path opacity=".74" d="M100.725 49.974a.153.153 0 01-.137-.223 9.982 9.982 0 018.951-5.493c.607 0 1.216.054 1.808.162a.154.154 0 11-.055.302 9.842 9.842 0 00-1.753-.156 9.677 9.677 0 00-8.676 5.324.155.155 0 01-.138.084z" fill="#fff"/>
    <path opacity=".78" d="M109.772 63.495c4.996 0 9.046-4.037 9.046-9.017 0-4.98-4.05-9.017-9.046-9.017-4.996 0-9.047 4.037-9.047 9.017 0 4.98 4.051 9.017 9.047 9.017z" fill="#fff"/>
    <path d="M94.519 65.266c6.106 0 11.056-4.934 11.056-11.02 0-6.086-4.95-11.02-11.056-11.02-6.106 0-11.056 4.934-11.056 11.02 0 6.086 4.95 11.02 11.056 11.02z" fill="url(#paint21_linear)"/>
    <path d="M94.519 64.899c5.903 0 10.688-4.77 10.688-10.654 0-5.883-4.785-10.653-10.688-10.653-5.903 0-10.688 4.77-10.688 10.653 0 5.884 4.785 10.654 10.688 10.654z" fill="url(#paint22_linear)"/>
    <path opacity=".74" d="M85.705 49.974a.154.154 0 01-.138-.223 9.982 9.982 0 018.952-5.493c.607 0 1.215.054 1.808.162a.154.154 0 11-.055.302 9.841 9.841 0 00-1.753-.156 9.676 9.676 0 00-8.676 5.324.155.155 0 01-.138.084z" fill="#fff"/>
    <path opacity=".78" d="M94.752 63.495c4.996 0 9.047-4.037 9.047-9.017 0-4.98-4.05-9.017-9.047-9.017-4.996 0-9.046 4.037-9.046 9.017 0 4.98 4.05 9.017 9.046 9.017z" fill="#fff"/>
    <path d="M73.279 65.266c8.007 0 14.498-6.47 14.498-14.451 0-7.982-6.49-14.452-14.498-14.452-8.007 0-14.499 6.47-14.499 14.452 0 7.98 6.492 14.45 14.499 14.45z" fill="url(#paint23_linear)"/>
    <path d="M73.279 64.785c7.74 0 14.016-6.255 14.016-13.97 0-7.716-6.275-13.971-14.016-13.971s-14.016 6.255-14.016 13.97c0 7.716 6.275 13.97 14.016 13.97z" fill="url(#paint24_linear)"/>
    <path opacity=".74" d="M61.721 45.164a.154.154 0 01-.137-.223c2.241-4.427 6.723-7.177 11.695-7.177.793 0 1.588.07 2.361.211a.154.154 0 11-.055.303 12.96 12.96 0 00-2.307-.207c-4.855 0-9.23 2.686-11.42 7.009a.153.153 0 01-.137.084z" fill="#fff"/>
    <path opacity=".78" d="M81.972 59.48a11.797 11.797 0 000-16.722c-4.633-4.618-12.144-4.618-16.777 0a11.797 11.797 0 000 16.722c4.633 4.618 12.144 4.618 16.777 0z" fill="#fff"/>
    <path d="M33.471 123.168s-.272 1.532-.404 3.049a1.046 1.046 0 001.003 1.132c2.026.084 6.36.248 7.916.179a.34.34 0 00.3-.466.762.762 0 00-.391-.41l-7.16-3.28-1.264-.204z" fill="url(#paint25_linear)"/>
    <path d="M33.248 122.268l.218 1.833s1.254.582 2.111-.074l-.52-2.042-1.809.283z" fill="url(#paint26_linear)"/>
    <path d="M33.412 87.814c-.094.478-.506 23.882 2.004 34.37a.356.356 0 01-.21.414 6.224 6.224 0 01-2.044.414.615.615 0 01-.61-.44c-.718-2.434-4.155-14.626-4.604-26.272-.5-13.014 0-.443 0-.443l.294-8.044h5.17z" fill="url(#paint27_linear)"/>
    <path d="M25.235 123.967s-.432.773-.85 2.829a.638.638 0 00.562.763c.67.066 1.7.15 2.524.145a.637.637 0 00.632-.71c-.091-.75-.377-1.981-1.256-2.94l-1.612-.087z" fill="url(#paint28_linear)"/>
    <path d="M24.855 121.61l.51 2.772s.504.374 1.501.103l-.243-2.982-1.768.107z" fill="url(#paint29_linear)"/>
    <path d="M23.478 88.532c-2.052 12.348.446 30.519 1.288 34.075a.555.555 0 00.45.421c.375.063.995.113 1.605-.063a.51.51 0 00.367-.469c.113-2.875-.09-20.526 1.822-27.503.097-.353.313-.661.613-.874l3.713-2.63.285-4.253-10.143 1.296z" fill="url(#paint30_linear)"/>
    <path d="M36.558 65.134c-6.151-.101-12.939 1.61-12.939 1.61-1.834 10.665-.32 22.966-.32 22.966 4.762 1.244 10.134-.762 10.134-.762.791-4.457 4.484-17.002 4.484-17.002 3.006-.372 5.482-1.236 7.521-2.379-1.555-1.797-2.288-4.083-2.607-5.435-2.175.674-4.376 1.034-6.273 1.002z" fill="url(#paint31_linear)"/>
    <path d="M54.728 56.103c-.604-.727-1.369-.383-1.369-.383-.905 3.812-5.652 6.902-10.528 8.413.319 1.351 1.052 3.638 2.607 5.435 8.093-4.536 9.29-13.465 9.29-13.465z" fill="url(#paint32_linear)"/>
    <path d="M54.582 56.289c.063.2-.669.505-1.1-.315-.016-.392-.255-2.075-.02-2.395 1.254-1.703 3.685-3.84 3.685-3.84.412.404.073.801.073.801l-1.18 1.225c.247.444.548.82.689 1.357.107.407.042.842-.165 1.212-.207.372-.49.855-.756 1.234-.505.715-1.226.72-1.226.72z" fill="url(#paint33_linear)"/>
    <path d="M55.525 52.56l-1.075.908-.337.904.958 1.06s.322-1.794.562-2.183c.239-.388.115-.576-.108-.69z" fill="url(#paint34_linear)"/>
    <path d="M25.978 72.682l-2.36-5.937s-5.745 3.891-6.69 8.825c1.085.08 3.061.361 4.995 1.335.425-2.33 4.055-4.223 4.055-4.223z" fill="url(#paint35_linear)"/>
    <path d="M31 78.269s-6.451 3.633-8.628.53c-.452-.644-.56-1.284-.449-1.894-1.933-.973-3.909-1.255-4.995-1.335-.284 1.488-.134 3.07.743 4.669 3.813 6.952 14.183-.385 14.183-.385L31 78.27z" fill="url(#paint36_linear)"/>
    <path d="M30.224 82.866l3.521-12.256c.04-.14.16-.24.303-.257.638-.075 2.487-.283 4.621-.463 2.571-.216 5.556-.392 7.34-.243a.358.358 0 01.294.516c-1.014 2.046-5.187 10.367-7.276 13.093a.362.362 0 01-.29.142l-8.17-.075a.359.359 0 01-.343-.457z" fill="url(#paint37_linear)"/>
    <path d="M39.035 68.828l2.552-.424a.183.183 0 01.204.237l-.253.763a.183.183 0 01-.15.124l-2.456.327a.183.183 0 01-.203-.223l.157-.666a.184.184 0 01.149-.138z" fill="url(#paint38_linear)"/>
    <path d="M37.123 70.982l.21-1.092a.253.253 0 01.223-.203l5.156-.522a.253.253 0 01.272.31l-.328 1.361a.253.253 0 01-.233.193l-5.038.253a.253.253 0 01-.262-.3z" fill="url(#paint39_linear)"/>
    <path d="M31.075 79.905s-.49-2.01-.292-2.723c.197-.714.58-1.63 1.859-1.427 1.277.204 2.785.74 2.785.74s-.076.93-1.047.63l.602.465s-.086.743-.907.346l.56.616s-.352.61-.955.22c-.604-.393-.893 1.375-2.605 1.133z" fill="url(#paint40_linear)"/>
    <path d="M30.327 60.157l-1.957 5.642a.203.203 0 00.093.245c.534.294 2.456 1.143 4.772-.32a.958.958 0 00.442-.684l.634-4.884h-3.984z" fill="url(#paint41_linear)"/>
    <path d="M34.586 54.933s2.15 4.032 1.874 5.661c-.275 1.63-2.94 1.512-5.265.19l-1.626-4.355 5.017-1.496z" fill="url(#paint42_linear)"/>
    <path d="M31.297 58.645a.166.166 0 00.073-.243c-.172-.262-.495-.798-.598-1.266 0 0-.387-.247.984-.573 1.37-.327 3.412-.835 3.841-1.997.419-1.133-.68-3.983-2.436-1.712a.167.167 0 01-.264.002c-.288-.373-1.044-1.148-2.094-.678-.983.439-1.094 1.157-1.08 1.518a.166.166 0 01-.196.17c-.497-.095-1.69-.176-2.246 1.043-.458 1.004-.16 1.573.11 1.851.089.09.05.239-.07.275-.327.1-.749.376-.707 1.138.059 1.055 1.241.961 1.578.913a.168.168 0 01.148.053c.289.318 1.59 1.67 2.997 1.833a.168.168 0 00.176-.222l-.609-1.765a.167.167 0 01.09-.207l.303-.133z" fill="url(#paint43_linear)"/>
    <path d="M31.542 58.895s-1.53-1.046-1.642-.165c-.112.881 1.378 1.277 2.116.948l-.474-.783z" fill="url(#paint44_linear)"/>
    <path d="M78.367 44.79h-2.765c.5.632.816 1.405.949 2.32h2.355l-.539 1.85h-1.781c-.14 1.392-.692 2.438-1.652 3.142-.961.703-2.297 1.054-4.008 1.054l5.777 6.703V60h-2.66l-6.211-7.23-.012-1.465h2.918c.977-.008 1.77-.22 2.38-.633.609-.422.995-.992 1.16-1.711h-6.786l.54-1.852h6.222c-.375-1.484-1.523-2.257-3.445-2.32h-3.293l.55-1.852h10.84l-.539 1.852zM98.105 50.493h-1.729c.313.396.51.88.593 1.45h1.472l-.337 1.158h-1.113c-.088.869-.432 1.523-1.032 1.962-.601.44-1.436.66-2.505.66l3.61 4.19V60h-1.662l-3.882-4.519-.007-.916h1.823c.61-.005 1.106-.136 1.487-.395.381-.264.623-.62.725-1.07h-4.24l.336-1.157h3.89c-.235-.927-.953-1.41-2.154-1.45h-2.058l.344-1.157h6.775l-.337 1.157zM114.104 50.493h-1.728c.312.396.51.88.593 1.45h1.472l-.337 1.158h-1.113c-.088.869-.432 1.523-1.033 1.962-.6.44-1.435.66-2.504.66l3.61 4.19V60h-1.662l-3.882-4.519-.007-.916h1.823c.611-.005 1.106-.136 1.487-.395.381-.264.623-.62.725-1.07h-4.24l.337-1.157h3.889c-.235-.927-.952-1.41-2.154-1.45h-2.058l.345-1.157h6.774l-.337 1.157z" fill="#FE7062"/>
  </g>
  <defs>
    <linearGradient id="paint0_linear" x1="135.785" y1="144.641" x2="41.748" y2="42.809" gradientUnits="userSpaceOnUse">
      <stop stop-color="#DAE3FE"/>
      <stop offset="1" stop-color="#E9EFFD"/>
    </linearGradient>
    <linearGradient id="paint1_linear" x1="83.473" y1="26.928" x2="-8.288" y2="162.943" gradientUnits="userSpaceOnUse">
      <stop stop-color="#09005D"/>
      <stop offset="1" stop-color="#1A0F91"/>
    </linearGradient>
    <linearGradient id="paint2_linear" x1="99.355" y1="2.006" x2="-34.244" y2="196.127" gradientUnits="userSpaceOnUse">
      <stop stop-color="#4F52FF"/>
      <stop offset="1" stop-color="#4042E2"/>
    </linearGradient>
    <linearGradient id="paint3_linear" x1="65.563" y1="-5.488" x2="34.953" y2="32.762" gradientUnits="userSpaceOnUse">
      <stop stop-color="#09005D"/>
      <stop offset="1" stop-color="#1A0F91"/>
    </linearGradient>
    <linearGradient id="paint4_linear" x1="68.755" y1="-2.934" x2="38.145" y2="35.316" gradientUnits="userSpaceOnUse">
      <stop stop-color="#09005D"/>
      <stop offset="1" stop-color="#1A0F91"/>
    </linearGradient>
    <linearGradient id="paint5_linear" x1="64.95" y1="-.651" x2="43.552" y2="36.396" gradientUnits="userSpaceOnUse">
      <stop stop-color="#09005D"/>
      <stop offset="1" stop-color="#1A0F91"/>
    </linearGradient>
    <linearGradient id="paint6_linear" x1="60.359" y1="105.05" x2="97.052" y2="69.61" gradientUnits="userSpaceOnUse">
      <stop stop-color="#4F52FF"/>
      <stop offset="1" stop-color="#4042E2"/>
    </linearGradient>
    <linearGradient id="paint7_linear" x1="66.437" y1="111.342" x2="103.129" y2="75.901" gradientUnits="userSpaceOnUse">
      <stop stop-color="#4F52FF"/>
      <stop offset="1" stop-color="#4042E2"/>
    </linearGradient>
    <linearGradient id="paint8_linear" x1="140.08" y1="60.522" x2="116.414" y2="86.733" gradientUnits="userSpaceOnUse">
      <stop stop-color="#FF928E"/>
      <stop offset="1" stop-color="#FE7062"/>
    </linearGradient>
    <linearGradient id="paint9_linear" x1="64.73" y1="109.575" x2="101.422" y2="74.135" gradientUnits="userSpaceOnUse">
      <stop stop-color="#4F52FF"/>
      <stop offset="1" stop-color="#4042E2"/>
    </linearGradient>
    <linearGradient id="paint10_linear" x1="70.807" y1="115.867" x2="107.499" y2="80.427" gradientUnits="userSpaceOnUse">
      <stop stop-color="#4F52FF"/>
      <stop offset="1" stop-color="#4042E2"/>
    </linearGradient>
    <linearGradient id="paint11_linear" x1="76.651" y1="121.917" x2="113.343" y2="86.477" gradientUnits="userSpaceOnUse">
      <stop stop-color="#4F52FF"/>
      <stop offset="1" stop-color="#4042E2"/>
    </linearGradient>
    <linearGradient id="paint12_linear" x1="82.728" y1="128.209" x2="119.42" y2="92.769" gradientUnits="userSpaceOnUse">
      <stop stop-color="#4F52FF"/>
      <stop offset="1" stop-color="#4042E2"/>
    </linearGradient>
    <linearGradient id="paint13_linear" x1="68.6" y1="113.582" x2="105.292" y2="78.141" gradientUnits="userSpaceOnUse">
      <stop stop-color="#4F52FF"/>
      <stop offset="1" stop-color="#4042E2"/>
    </linearGradient>
    <linearGradient id="paint14_linear" x1="74.677" y1="119.874" x2="111.37" y2="84.433" gradientUnits="userSpaceOnUse">
      <stop stop-color="#4F52FF"/>
      <stop offset="1" stop-color="#4042E2"/>
    </linearGradient>
    <linearGradient id="paint15_linear" x1="80.521" y1="125.923" x2="117.213" y2="90.484" gradientUnits="userSpaceOnUse">
      <stop stop-color="#4F52FF"/>
      <stop offset="1" stop-color="#4042E2"/>
    </linearGradient>
    <linearGradient id="paint16_linear" x1="72.849" y1="117.981" x2="109.541" y2="82.541" gradientUnits="userSpaceOnUse">
      <stop stop-color="#4F52FF"/>
      <stop offset="1" stop-color="#4042E2"/>
    </linearGradient>
    <linearGradient id="paint17_linear" x1="78.926" y1="124.273" x2="115.618" y2="88.832" gradientUnits="userSpaceOnUse">
      <stop stop-color="#4F52FF"/>
      <stop offset="1" stop-color="#4042E2"/>
    </linearGradient>
    <linearGradient id="paint18_linear" x1="84.77" y1="130.323" x2="121.462" y2="94.883" gradientUnits="userSpaceOnUse">
      <stop stop-color="#4F52FF"/>
      <stop offset="1" stop-color="#4042E2"/>
    </linearGradient>
    <linearGradient id="paint19_linear" x1="94.41" y1="71.749" x2="109.184" y2="54.545" gradientUnits="userSpaceOnUse">
      <stop stop-color="#E1473D"/>
      <stop offset="1" stop-color="#E9605A"/>
    </linearGradient>
    <linearGradient id="paint20_linear" x1="117.619" y1="42.078" x2="73.966" y2="108.242" gradientUnits="userSpaceOnUse">
      <stop stop-color="#FF928E"/>
      <stop offset="1" stop-color="#FE7062"/>
    </linearGradient>
    <linearGradient id="paint21_linear" x1="79.389" y1="71.749" x2="94.164" y2="54.545" gradientUnits="userSpaceOnUse">
      <stop stop-color="#E1473D"/>
      <stop offset="1" stop-color="#E9605A"/>
    </linearGradient>
    <linearGradient id="paint22_linear" x1="102.599" y1="42.078" x2="58.946" y2="108.242" gradientUnits="userSpaceOnUse">
      <stop stop-color="#FF928E"/>
      <stop offset="1" stop-color="#FE7062"/>
    </linearGradient>
    <linearGradient id="paint23_linear" x1="53.439" y1="73.768" x2="72.813" y2="51.207" gradientUnits="userSpaceOnUse">
      <stop stop-color="#E1473D"/>
      <stop offset="1" stop-color="#E9605A"/>
    </linearGradient>
    <linearGradient id="paint24_linear" x1="83.875" y1="34.859" x2="26.63" y2="121.622" gradientUnits="userSpaceOnUse">
      <stop stop-color="#FF928E"/>
      <stop offset="1" stop-color="#FE7062"/>
    </linearGradient>
    <linearGradient id="paint25_linear" x1="41.758" y1="121.051" x2="15.633" y2="149.56" gradientUnits="userSpaceOnUse">
      <stop stop-color="#09005D"/>
      <stop offset="1" stop-color="#1A0F91"/>
    </linearGradient>
    <linearGradient id="paint26_linear" x1="33.248" y1="123.162" x2="35.577" y2="123.162" gradientUnits="userSpaceOnUse">
      <stop stop-color="#FEBBBA"/>
      <stop offset="1" stop-color="#FF928E"/>
    </linearGradient>
    <linearGradient id="paint27_linear" x1="24" y1="120.536" x2="38.576" y2="91.598" gradientUnits="userSpaceOnUse">
      <stop stop-color="#09005D"/>
      <stop offset="1" stop-color="#1A0F91"/>
    </linearGradient>
    <linearGradient id="paint28_linear" x1="35.877" y1="115.661" x2="9.751" y2="144.17" gradientUnits="userSpaceOnUse">
      <stop stop-color="#09005D"/>
      <stop offset="1" stop-color="#1A0F91"/>
    </linearGradient>
    <linearGradient id="paint29_linear" x1="24.855" y1="123.043" x2="26.866" y2="123.043" gradientUnits="userSpaceOnUse">
      <stop stop-color="#FEBBBA"/>
      <stop offset="1" stop-color="#FF928E"/>
    </linearGradient>
    <linearGradient id="paint30_linear" x1="19.016" y1="118.026" x2="33.591" y2="89.087" gradientUnits="userSpaceOnUse">
      <stop stop-color="#09005D"/>
      <stop offset="1" stop-color="#1A0F91"/>
    </linearGradient>
    <linearGradient id="paint31_linear" x1="11.357" y1="103.516" x2="27.017" y2="79.949" gradientUnits="userSpaceOnUse">
      <stop stop-color="#FF928E"/>
      <stop offset="1" stop-color="#FE7062"/>
    </linearGradient>
    <linearGradient id="paint32_linear" x1="36.083" y1="71.286" x2="58.478" y2="56.693" gradientUnits="userSpaceOnUse">
      <stop stop-color="#FEBBBA"/>
      <stop offset="1" stop-color="#FF928E"/>
    </linearGradient>
    <linearGradient id="paint33_linear" x1="37.359" y1="62.9" x2="59.074" y2="51.312" gradientUnits="userSpaceOnUse">
      <stop stop-color="#FEBBBA"/>
      <stop offset="1" stop-color="#FF928E"/>
    </linearGradient>
    <linearGradient id="paint34_linear" x1="53.25" y1="57.488" x2="56.329" y2="51.257" gradientUnits="userSpaceOnUse">
      <stop stop-color="#FEBBBA"/>
      <stop offset="1" stop-color="#FF928E"/>
    </linearGradient>
    <linearGradient id="paint35_linear" x1="4.434" y1="98.917" x2="20.094" y2="75.35" gradientUnits="userSpaceOnUse">
      <stop stop-color="#FF928E"/>
      <stop offset="1" stop-color="#FE7062"/>
    </linearGradient>
    <linearGradient id="paint36_linear" x1="16.797" y1="79.4" x2="31.854" y2="79.4" gradientUnits="userSpaceOnUse">
      <stop stop-color="#FEBBBA"/>
      <stop offset="1" stop-color="#FF928E"/>
    </linearGradient>
    <linearGradient id="paint37_linear" x1="36.408" y1="68.731" x2="44.637" y2="103.126" gradientUnits="userSpaceOnUse">
      <stop stop-color="#09005D"/>
      <stop offset="1" stop-color="#1A0F91"/>
    </linearGradient>
    <linearGradient id="paint38_linear" x1="-330.402" y1="592.505" x2="-324.365" y2="583.924" gradientUnits="userSpaceOnUse">
      <stop stop-color="#53D8FF"/>
      <stop offset="1" stop-color="#3840F7"/>
    </linearGradient>
    <linearGradient id="paint39_linear" x1="-329.991" y1="592.805" x2="-323.953" y2="584.224" gradientUnits="userSpaceOnUse">
      <stop stop-color="#53D8FF"/>
      <stop offset="1" stop-color="#3840F7"/>
    </linearGradient>
    <linearGradient id="paint40_linear" x1="30.736" y1="77.827" x2="35.426" y2="77.827" gradientUnits="userSpaceOnUse">
      <stop stop-color="#FEBBBA"/>
      <stop offset="1" stop-color="#FF928E"/>
    </linearGradient>
    <linearGradient id="paint41_linear" x1="26.955" y1="74.104" x2="32.477" y2="61.485" gradientUnits="userSpaceOnUse">
      <stop stop-color="#FEBBBA"/>
      <stop offset="1" stop-color="#FF928E"/>
    </linearGradient>
    <linearGradient id="paint42_linear" x1="35.727" y1="59.582" x2="29.194" y2="55.584" gradientUnits="userSpaceOnUse">
      <stop stop-color="#FEBBBA"/>
      <stop offset="1" stop-color="#FF928E"/>
    </linearGradient>
    <linearGradient id="paint43_linear" x1="25.717" y1="51.409" x2="34.152" y2="58.092" gradientUnits="userSpaceOnUse">
      <stop stop-color="#09005D"/>
      <stop offset="1" stop-color="#1A0F91"/>
    </linearGradient>
    <linearGradient id="paint44_linear" x1="34.008" y1="61.066" x2="28.13" y2="57.469" gradientUnits="userSpaceOnUse">
      <stop stop-color="#FEBBBA"/>
      <stop offset="1" stop-color="#FF928E"/>
    </linearGradient>
    <clipPath id="clip0">
      <path fill="#fff" d="M0 0h128v128H0z"/>
    </clipPath>
  </defs>
</svg>
