<svg width="178" height="97" fill="none" xmlns="http://www.w3.org/2000/svg">
  <path d="M19.33 97s-17.11-4.868-9.264-27.16 22.77-12.675 18.459-32.17C22.837 11.96 46.918-5.522 73.394 1.6c26.475 7.12 19.38 15.034 50.492 7.064 37.93-9.716 41.129 30.708 32.332 44.136-8.797 13.427 24.014 15.364 10.461 44.2H19.33z" fill="#DAE3FE" fill-opacity=".5"/>
  <path d="M87.932 96.34H36.755a2.016 2.016 0 01-2.013-2.018V25.92c0-1.146.948-2.061 2.089-2.018l53.114 2.45v67.969c0 1.116-.901 2.02-2.013 2.02zM91.958 96.34h51.176a2.017 2.017 0 002.014-2.018V25.92a2.016 2.016 0 00-2.089-2.018l-53.114 2.45v67.969c0 1.116.901 2.02 2.013 2.02z" fill="#1A0F91"/>
  <path d="M38.617 26.87l-1.66 1.348c-.234.19-.37.48-.37.787v66.314c0 .555.439 1.005.981 1.005H41.7a.995.995 0 00.98-1.066L38.616 26.87zM141.374 26.87l1.659 1.348c.235.19.371.48.371.787v66.314a.993.993 0 01-.981 1.005h-4.132a.995.995 0 01-.98-1.066l4.063-68.389z" fill="#AEC3FF"/>
  <path d="M88.05 96.341H39.9c-1.046 0-1.894-.873-1.894-1.95V28.303c0-1.106.892-1.992 1.965-1.95l42.03 1.625c4.435.172 7.944 3.925 7.944 8.497V94.39c0 1.078-.848 1.951-1.894 1.951zM91.683 96.341h48.463c.96 0 1.738-.802 1.738-1.79V28.137c0-1.015-.818-1.828-1.803-1.789l-43.083 1.666c-3.938.152-7.053 3.484-7.053 7.543V94.55c0 .988.778 1.79 1.738 1.79z" fill="#91B3FA"/>
  <path d="M90.076 39.506h-.261v42.911h.26V39.506z" fill="#F9DEC7"/>
  <path d="M44.869 96.298h35.54a4.477 4.477 0 004.477-4.478v-.187a4.477 4.477 0 00-4.476-4.478H44.869a4.477 4.477 0 00-4.476 4.478v.187a4.477 4.477 0 004.476 4.478z" fill="#2B478B"/>
  <path d="M65.011 90.508l-.032 1.999a3.2 3.2 0 003.148 3.252l23.621.377.006-.398a4.074 4.074 0 01-2.194-3.68l.011-.703a4.073 4.073 0 012.311-3.61v-.008l-23.621-.377a3.199 3.199 0 00-3.25 3.148z" fill="#fff"/>
  <path d="M92.367 96.297H67.482c-1.605 0-2.863-2.01-2.863-4.575 0-2.564 1.258-4.574 2.863-4.574h24.885a.374.374 0 010 .75H67.482c-1.146 0-2.114 1.75-2.114 3.825 0 2.074.968 3.826 2.114 3.826h24.885a.374.374 0 010 .748z" fill="#1B3770"/>
  <path d="M89.993 89.584h-21.4v.059h21.4v-.059z" fill="#E8C2A3"/>
  <path d="M89.689 90.418h-8.124v.054h8.124v-.054z" fill="#fff"/>
  <path d="M89.689 93.258H75.517v.054h14.172v-.054z" fill="#E8C2A3"/>
  <path d="M71.25 89.613s1.098.46 1.228 2.012c.13 1.552 0 2.378 0 2.378l-1.325-.63-1.338.63v-2.425s-.049-1.965-1.876-1.965h3.31z" fill="#E1473D"/>
  <path d="M42.019 87.155h27.345a2.93 2.93 0 002.93-2.931v-1.02a2.93 2.93 0 00-2.93-2.93H42.019a2.93 2.93 0 00-2.93 2.93v1.02a2.93 2.93 0 002.93 2.931z" fill="#699DEE"/>
  <path d="M57.462 82.793l-.024 1.502a2.398 2.398 0 002.35 2.444l17.628.284.005-.299a3.065 3.065 0 01-1.638-2.767l.008-.528c.02-1.2.72-2.226 1.725-2.713v-.006l-17.629-.284a2.396 2.396 0 00-2.425 2.367z" fill="#fff"/>
  <path d="M77.877 87.144H59.305c-1.197 0-2.136-1.51-2.136-3.438 0-1.928.939-3.438 2.136-3.438h18.572a.28.28 0 01.28.281.28.28 0 01-.28.281H59.305c-.855 0-1.577 1.317-1.577 2.876s.722 2.875 1.577 2.875h18.572a.28.28 0 01.28.282.28.28 0 01-.28.281z" fill="#4B87DD"/>
  <path d="M76.105 82.1h-13.41v.04h13.41v-.04z" fill="#E8C2A3"/>
  <path d="M75.879 82.726h-6.063v.04h6.063v-.04z" fill="#fff"/>
  <path d="M75.878 84.86H65.302v.04h10.576v-.04z" fill="#E8C2A3"/>
  <path d="M135.74 74.566s.342 1.052.312 1.293c-.029.24-.244 1.064-.397 1.274-.153.21-.229-.857-.35-1.018-.121-.16-.025.402-.111.454-.085.052-.263-.414-.34-.579-.076-.164.187-.77.189-1.194 0-.421.697-.23.697-.23z" fill="#FFB27D"/>
  <path d="M127.704 66.204c-.094-1.208 1.217-2.035 2.251-1.407.022.012.043.026.064.039 1.549.998 4.892 5.653 5.122 6.12.23.466.909 4.176.909 4.176s-.839.308-1.232-.011c0 0-1.361-3.519-1.562-3.694-.201-.176-5.444-3.12-5.489-4.223a24.23 24.23 0 00-.063-1z" fill="#233862"/>
  <path d="M114.209 66.548l.456 1.31 6.585-2.294-.456-1.31-6.585 2.294z" fill="#FEBBBA"/>
  <path d="M112.906 67.737l1.759.122-.456-1.31-1.303 1.188zM121.711 64.423l.144.414a.49.49 0 01-.301.622l-.304.106-.456-1.31.331-.115a.46.46 0 01.586.283z" fill="#F9DDBF"/>
  <path d="M137.061 93.453s.624.57.502.976c-.122.405-.686.675-.762 1.17-.076.496-.381.766-.654.766h-1.308s-.202-.349.285-.454c.488-.105.672-.687.641-1.227-.03-.54.046-1.261.046-1.261l1.036-.24.214.27zM129.396 94.93s.112 1.297-.162 1.432l-3.511-.007s0-.405.564-.495c.564-.09 1.555-.42 1.722-1.156.168-.735 1.387.225 1.387.225z" fill="#1F4075"/>
  <path d="M126.433 76.592s.185 2.276.402 5.01c.296 3.716.652 8.28.687 9.144.06 1.502.304 3.903.304 3.903s.579.57 1.737.33c0 0 1.033-3.428 1.327-7.055l.014-.179c.275-3.692.701-11.468.701-11.468l-5.172.315z" fill="#FEBBBA"/>
  <path d="M126.433 76.592s.185 2.276.402 5.01l4.056 6.322.014-.179c.274-3.692.701-11.468.701-11.468l-5.173.315z" fill="#FF928E"/>
  <path d="M127.278 76.863s3.337 8.24 5.531 12.113c2.194 3.873 2.88 4.954 2.88 4.954s1.257-.495 1.371-.833c0 0-.839-7.476-2.309-9.299-.83-1.03-1.805-4.12-1.851-5.2-.046-1.081-.297-3.22-.297-3.22l-5.325 1.485z" fill="#FEBBBA"/>
  <path d="M130.155 64.502s-2.236 1.135-3.545.756c0 0 .313-.41.867-.723-.05-.26-.09-.486-.114-.679-.064-.442-.069-.694-.069-.694l.857-.703.813-.672c-.027 1.847 1.191 2.715 1.191 2.715z" fill="#FFB27D"/>
  <path d="M132.376 76.03c-.903.546-1.757.957-2.757 1.187-1.18.28-2.63.198-3.115.272a.201.201 0 01-.142-.036c-.037-.02-.252-1.46-.466-3.276a2.334 2.334 0 01-.023-.22l-.004-.025a72.132 72.132 0 01-.343-3.903 21.935 21.935 0 01-.038-1.809c.007-.233.02-.443.041-.626.128-1.06.634-1.82 1.11-2.384l.395-.45c.459.03.927-.058 1.368-.35.483-.317 1.006-.694 1.105-.637.74.405 1.34 1.49 1.77 2.876.247.798.436 1.703.557 2.662.039.297.072.602.098.906l.013.168a29 29 0 00.258 2.305c.141.938.302 1.723.416 2.277.057.281.1.5.126.655.025.136-.247.331-.369.407z" fill="#2B478B"/>
  <path d="M128.994 62.493s-.55 1.051-1.63 1.364c-.064-.443-.069-.694-.069-.694l.857-.703.842.033z" fill="#ED985F"/>
  <path d="M126.898 63.14s2.16.31 2.336-1.018c.176-1.329.573-2.183-.799-2.437-1.373-.255-1.708.219-1.876.648-.168.43-.219 2.693.339 2.808z" fill="#FFB27D"/>
  <path d="M129.964 59.496c.019-.023.064-.042.165-.05 0 0-.082-.048-.189-.048-.024-.14-.103-.385-.344-.44 0 0 .13.066.15.214-.283-.28-.883-.477-2.531-.314-2.172.215-1.428 1.594-1.143 1.754.285.16.985-.308 1.511-.277.525.03.64.788.82.888.18.1.106-.082.345-.196s.269.285.205.546c-.064.261.273.597.273.597l.328-.367c.327-.367.611-1.899.453-2.22a2.552 2.552 0 01-.043-.087z" fill="#2C3A64"/>
  <path d="M129.278 68.339s-1.821 1.386-3.752 1.69a22.34 22.34 0 01-.037-1.808l3.789.118z" fill="#233862"/>
  <path d="M118.091 66.55c-.028-.031-.4-1.273-1.042-1.183-.42.059-1.105.302-.923.854.072.217 1.349.965 1.349.965l.616-.636z" fill="#FFB27D"/>
  <path d="M129.503 65.66c1.039.621.955 2.17-.156 2.65-.023.01-.045.02-.069.029-1.71.686-6.799.762-7.953.635-1.253-.137-3.931-1.676-3.931-1.676s.236-.863.723-.998c0 0 2.829.803 3.916.864.688.04 5.693-2.635 6.619-2.033.244.16.543.344.851.528z" fill="#2B478B"/>
  <path d="M104.62 90.26l-11.577.57V79.248l11.577-.57V90.26z" fill="#FE7062"/>
  <path d="M93.913 89.463l3.42-6.335 2.514 3.307L101.102 85l2.661 3.979-9.85.484zM98.962 82.162a.94.94 0 01.885-.928.835.835 0 01.885.841.94.94 0 01-.885.93.835.835 0 01-.885-.843z" fill="#FFF7F0"/>
  <path d="M139.021 45.976l-16.677.82V30.111l16.677-.82v16.685z" fill="#FE7062"/>
  <path d="M123.596 44.828l4.927-9.127 3.622 4.765 1.808-2.067 3.833 5.732-14.19.697zM130.87 34.31c0-.704.57-1.303 1.275-1.338a1.203 1.203 0 011.275 1.213c0 .705-.571 1.304-1.275 1.338a1.202 1.202 0 01-1.275-1.213z" fill="#FFF7F0"/>
  <path d="M109.316 58.95l-16.308.802v-.95L109.316 58v.95z" fill="#fff"/>
  <path d="M101.787 60.86l-8.744.43v-.475l8.744-.43v.475zM99.224 62.568l-6.18.304v-.476l6.18-.303v.475zM106.604 62.204l-6.18.305v-.476l6.18-.303v.474zM115.016 61.79l-7.53.37v-.475l7.53-.37v.475zM98.41 64.156l-5.367.263v-.475l5.366-.263v.475zM104.816 63.841l-5.365.264v-.475l5.365-.264v.475zM112.119 63.48l-6.538.322v-.475l6.538-.321v.475z" fill="#F9DEC7"/>
  <path d="M109.352 47.84l-16.309.802v-.95l16.309-.801v.95z" fill="#fff"/>
  <path d="M101.787 50.136l-8.744.43v-.475l8.744-.43v.475zM112.227 49.623l-8.743.43v-.475l8.743-.43v.475zM99.224 51.844l-6.18.303v-.475l6.18-.304v.476zM106.604 51.48l-6.18.304v-.475l6.18-.304v.475zM115.016 51.066l-7.53.37v-.475l7.53-.37v.475zM98.41 53.433l-5.367.263v-.475l5.366-.264v.476zM104.816 53.117l-5.365.264v-.476l5.365-.263v.475zM112.119 52.758l-6.538.321v-.475l6.538-.32v.474z" fill="#F9DEC7"/>
  <path d="M133.722 49.164l-11.472.564v-.669l11.472-.564v.669z" fill="#fff"/>
  <path d="M128.4 50.778l-6.15.303v-.334l6.15-.303v.334zM135.744 50.417l-6.15.303v-.335l6.15-.302v.334zM126.597 51.98l-4.347.213v-.334l4.347-.214v.334zM131.789 51.724l-4.348.214v-.335l4.348-.213v.334zM137.706 51.432l-5.297.261v-.334l5.297-.26v.334zM126.024 53.097l-3.774.185v-.334l3.774-.185v.334zM130.531 52.876l-3.774.185v-.334l3.774-.186v.335zM135.668 52.623l-4.599.225v-.334l4.599-.226v.335z" fill="#F9DEC7"/>
  <path d="M109.352 69.752l-16.309.802v-.95l16.309-.802v.95z" fill="#FF928E"/>
  <path d="M101.787 72.048l-8.744.43v-.476l8.744-.43v.476zM112.227 71.534l-8.743.43v-.475l8.743-.43v.475zM99.224 73.755l-6.18.304v-.475l6.18-.304v.475zM106.604 73.392l-6.18.304v-.475l6.18-.304v.475zM115.016 72.978l-7.53.37v-.475l7.53-.37v.475zM98.41 75.343l-5.367.264v-.475l5.366-.264v.475zM104.816 75.029l-5.365.263v-.475l5.365-.263v.475zM112.119 74.668l-6.538.322v-.475l6.538-.322v.475z" fill="#F9DEC7"/>
  <path d="M120.202 84.654l-12.597.62v-.95l12.597-.62v.95z" fill="#fff"/>
  <path d="M114.359 86.865l-6.754.332v-.475l6.754-.332v.475zM122.423 86.469l-6.753.332v-.476l6.753-.332v.476zM112.379 88.544l-4.774.234v-.475l4.774-.235v.476zM118.08 88.263l-4.773.235v-.475l4.773-.235v.475zM124.577 87.944l-5.817.286v-.475l5.817-.286v.475zM111.75 90.122l-4.145.205v-.476l4.145-.204v.475zM116.699 89.88l-4.144.204v-.476l4.144-.204v.476zM122.339 89.603l-5.05.248v-.475l5.05-.248v.475z" fill="#F9DEC7"/>
  <path d="M83.966 51.68l-18.173-.66V32.84l18.173.66v18.182z" fill="#FE7062"/>
  <path d="M67.158 48.994l5.368-9.488 3.947 5.53 1.971-2.084 4.177 6.603-15.463-.561zM75.084 38.21a1.33 1.33 0 011.39-1.34c.767.028 1.389.673 1.389 1.44a1.33 1.33 0 01-1.39 1.34 1.452 1.452 0 01-1.389-1.44z" fill="#FFF7F0"/>
  <path d="M81.795 58.85l-16.308-.592v-.95l16.308.592v.95z" fill="#fff"/>
  <path d="M74.23 60.5l-8.743-.318v-.476l8.743.317v.476zM71.667 61.987l-6.18-.224v-.476l6.18.225v.475zM79.048 62.256l-6.18-.225v-.475l6.18.224v.476zM87.46 62.561l-7.531-.274v-.474l7.53.273v.475zM70.853 63.506l-5.366-.195v-.475l5.366.195v.475zM77.26 63.739l-5.366-.196v-.475l5.365.195v.476zM84.563 64.004l-6.538-.238v-.475l6.538.238v.475z" fill="#F9DEC7"/>
  <path d="M81.795 70.037l-16.308-.591v-.95l16.308.592v.95z" fill="#fff"/>
  <path d="M74.23 71.687l-8.743-.318v-.475l8.743.318v.475zM84.67 72.067l-8.742-.319v-.475l8.743.318v.476zM71.667 73.175l-6.18-.225v-.475l6.18.224v.476zM79.048 73.443l-6.18-.224v-.476l6.18.225v.475zM87.46 73.748l-7.531-.274v-.475l7.53.273v.476zM70.853 74.694l-5.366-.196v-.475l5.366.195v.476zM77.26 74.926l-5.366-.195v-.475l5.365.195v.475zM84.563 75.191l-6.538-.237v-.475l6.538.237v.475z" fill="#F9DEC7"/>
  <path d="M58.623 31.078l-16.309-.592v-.95l16.309.592v.95z" fill="#fff"/>
  <path d="M51.058 32.727l-8.744-.317v-.475l8.744.317v.475zM61.498 33.106l-8.743-.317v-.476l8.743.318v.475zM48.495 34.215l-6.18-.225v-.474l6.18.224v.475zM55.875 34.483l-6.18-.224v-.476l6.18.225v.475zM64.287 34.789l-7.53-.274v-.475l7.53.274v.475zM47.68 35.734l-5.366-.195v-.476l5.366.196v.475zM54.087 35.966l-5.365-.194v-.476l5.365.195v.475zM61.39 36.231l-6.538-.237v-.475l6.538.237v.475z" fill="#F9DEC7"/>
  <path d="M50.22 11.849l1.431-.34 4.712 6.39-1.623.385-1.021-1.43-2.983.71-.27 1.735-1.581.377 1.335-7.827zm2.62 3.766l-1.481-2.066-.394 2.511 1.875-.445zM58.246 7.666c.204-2.052 1.917-3.579 4.133-3.359 1.36.136 2.072.727 2.676 1.453l-1.057.999c-.506-.56-.95-.907-1.775-.988-1.216-.121-2.193.802-2.318 2.06-.123 1.238.63 2.354 1.867 2.477.825.082 1.362-.198 1.98-.657l.903 1.183c-.82.72-1.688 1.071-3.08.934-2.122-.212-3.536-2.008-3.329-4.102zM80.103 5.708l3.324-.537c.818-.132 1.498-.01 1.973.332.38.275.608.647.691 1.159.13.808-.226 1.327-.691 1.697.879.183 1.468.582 1.627 1.564.21 1.31-.747 2.136-2.363 2.396l-3.405.55-1.156-7.16zm3.453 2.414c.696-.113 1.099-.409 1.01-.961-.076-.47-.487-.677-1.152-.57l-1.554.251.244 1.514 1.452-.234zm.885 2.816c.696-.112 1.075-.425.986-.977-.077-.481-.483-.72-1.291-.59l-1.82.294.254 1.576 1.871-.303zM67.633 17.674c.174-2.055 1.917-3.602 4.105-3.416 1.3.111 2.055.53 2.754 1.233l-1.103 1.123c-.518-.512-.99-.823-1.826-.894-1.157-.098-2.162.846-2.268 2.096-.112 1.321.714 2.37 1.993 2.478.578.05 1.106-.051 1.534-.306l.088-1.033-1.6-.136.117-1.373 3.137.266-.266 3.14c-.797.566-1.862.996-3.184.883-2.25-.191-3.665-1.903-3.481-4.061zM141.313 15.267a3.947 3.947 0 01-2.236.162c-2.189-.464-3.415-2.428-2.984-4.466.427-2.017 2.367-3.333 4.556-2.87 2.189.464 3.415 2.428 2.984 4.466a3.675 3.675 0 01-1.059 1.905l.598.772-1.227.895-.632-.864zm-.939-1.269l-.947-1.228 1.229-.905.942 1.301c.194-.266.324-.577.403-.953.257-1.217-.421-2.42-1.677-2.685-1.257-.266-2.338.543-2.6 1.78-.257 1.217.42 2.42 1.677 2.685.344.074.674.07.973.005zM115.008 12.865l1.457-.197 3.967 3.97-.599-4.427 1.56-.211.973 7.188-1.344.183-4.099-4.098.619 4.57-1.56.21-.974-7.188zM92.116 13.924l1.7.176.986 5.041 2.127-4.738 1.36.141 1.108 5.075 2.001-4.73 1.659.172-3.218 7.01-1.38-.143-1.138-4.89-2.118 4.551-1.38-.143-1.707-7.522z" fill="#fff"/>
  <path d="M43.229 96.47a.548.548 0 00.5-.348L56.585 56.61c.063-.193-.059-.35-.273-.352a.549.549 0 00-.5.348L42.956 96.118c-.062.193.06.35.273.352zM32.868 96.41a.548.548 0 00.5-.347l12.856-39.514c.064-.193-.058-.35-.272-.352a.548.548 0 00-.5.348L32.596 96.058c-.063.193.059.351.272.352z" fill="#233862"/>
  <path d="M44.024 62.055l10.404.061a.52.52 0 00.472-.328c.06-.182-.057-.331-.257-.333l-10.404-.06a.52.52 0 00-.472.328c-.06.181.056.331.257.332zM41.78 68.954l10.403.06a.52.52 0 00.473-.328c.059-.182-.057-.331-.258-.332l-10.404-.061a.52.52 0 00-.472.328c-.059.182.057.332.257.333zM39.617 75.598l10.405.061a.52.52 0 00.472-.328c.06-.182-.057-.332-.258-.333l-10.404-.06a.52.52 0 00-.472.328c-.059.181.057.331.257.332zM37.184 83.078l10.404.06a.52.52 0 00.472-.328c.06-.181-.057-.331-.257-.332l-10.404-.061a.52.52 0 00-.473.328c-.058.182.057.332.258.333zM34.636 90.908l10.404.06a.52.52 0 00.473-.328c.06-.181-.057-.33-.258-.332l-10.404-.06a.52.52 0 00-.472.327c-.059.182.057.332.257.333z" fill="#233862"/>
  <path d="M53.88 47.662s.123-.277.202-.408c.08-.13.42-.515.478-.428.058.087.29.672.166.836-.123.164.009.449-.604.622l-.243-.622z" fill="#FFB27D"/>
  <path d="M47.075 45.915s3.134 2.617 4.356 2.375c.956-.19 2.422-.692 2.422-.692l.294.75s-1.316 1.786-2.688 1.797c-2.143.018-3.727-.928-3.727-.928l-.657-3.302z" fill="#FF928E"/>
  <path d="M41.577 73.526s.09 1.469.375 1.49c.038.002 1.44.002 1.44.002l1.791-.01s-.012-.432-.535-.523c-.524-.091-1.4-.459-1.717-1.151-.333-.728-1.354.192-1.354.192z" fill="#1C3D72"/>
  <path d="M41.474 73.627s.544.183.969.183c.474 0 .904-.13.904-.13s.103-.991.667-3.175a72.423 72.423 0 011.318-4.447c1.661-5.056 2.166-8.013 2.212-8.293a.323.323 0 00.003-.022l-.005-.003-5.105-2.242s.63 6.968-.174 9.642c-.113.374-.21.81-.292 1.281-.51 2.905-.497 7.206-.497 7.206z" fill="#2B478B"/>
  <path d="M44.014 70.505a72.444 72.444 0 011.32-4.447c1.66-5.056 2.165-8.013 2.21-8.293l-.001-.025-5.106-2.242s.631 6.968-.173 9.642c-.114.374 1.75 5.365 1.75 5.365z" fill="#233862"/>
  <path d="M45.565 73.526s.091 1.469.375 1.49c.038.002 1.44.002 1.44.002l1.791-.01s-.012-.432-.535-.523c-.524-.091-1.4-.459-1.716-1.151-.334-.728-1.355.192-1.355.192z" fill="#1C3D72"/>
  <path d="M48.46 55.662s.067 4.515-.714 10.059c-.78 5.544-.517 7.897-.517 7.897s-.536.174-.752.192c-.552.045-1.117-.13-1.117-.13s-1.118-5.546-.797-8.32c.32-2.776-1.53-9.523-1.53-9.523l5.427-.175z" fill="#2B478B"/>
  <path d="M44.84 45.097l.996.654.908-.257c.166-.237.21-.693.212-1.09a6.765 6.765 0 00-.035-.725l-1.345-.593-.502-.222c.002.008.04.413.045.471.093 1.05-.28 1.762-.28 1.762z" fill="#FFB27D"/>
  <path d="M48.483 56.918c-1.24 1.198-5.936.997-6.225-.324-.29-1.32.315-11.239 2.435-11.861.44-.13 2.79.63 2.79.63s.37.966.611 2.195c.047.24.184 2.774.287 5.145.048 1.11.088 2.183.108 2.969.02.736.02 1.22-.006 1.246z" fill="#FEBBBA"/>
  <path d="M45.22 43.354c.273.462 1.23.865 1.736 1.05.003-.392-.035-.725-.035-.725l-1.344-.594c-.298-.004-.479.063-.358.269z" fill="#FCA56B"/>
  <path d="M47.428 43.597s-2.167.676-2.567-.68c-.4-1.357-.95-2.183.417-2.672 1.367-.489 1.789-.051 2.033.369s.67 2.773.117 2.983z" fill="#FFB27D"/>
  <path d="M47.226 40.484s-.139 1.578-.465 1.51c-.326-.069-.685-.216-.638.26.048.475-.317 1.291-.787 1.29-1.01-.005-2.106-2.595-1.83-3.086.798-1.417 4.872-1.703 3.72.026z" fill="#163560"/>
  <path d="M46.907 44.766c-.028-.012-1.613-.722-1.798-.662-.186.062-.417.628-.417.628l2.79.63c.002.001-.218-.446-.575-.596z" fill="#FF928E"/>
  <path d="M56.775 52.448l-8.885 8.368c-.174.164-.394.216-.488.116l-.3-.318c-.094-.1-.029-.316.146-.48l8.884-8.37c.174-.163.394-.216.488-.116l.3.32c.094.099.03.315-.145.48z" fill="#1F4D84"/>
  <path d="M51.79 57.144l-3.9 3.672c-.174.164-.394.216-.488.116l-.3-.318c-.094-.1-.029-.316.146-.48l3.899-3.673.642.683z" fill="#F78248"/>
  <path d="M54.733 49.288a6.962 6.962 0 0011.734 2.74 6.968 6.968 0 00-.3-9.847 6.96 6.96 0 00-9.844.3 6.965 6.965 0 00-1.59 6.807zm1.99-6.43a6.405 6.405 0 019.067-.276 6.418 6.418 0 01-2.912 10.917 6.418 6.418 0 01-6.154-10.64z" fill="#1F4D84"/>
  <path opacity=".5" d="M66.066 51.652a6.405 6.405 0 01-9.067.277 6.419 6.419 0 01-.276-9.07 6.403 6.403 0 015.771-1.925 6.419 6.419 0 013.572 10.718z" fill="#B3CFF9"/>
  <path d="M48.49 55.672C43.594 52.181 44 47.523 44 47.523c1.79 1.01 3.565 3.242 4.38 5.178.047 1.11.088 2.183.109 2.97z" fill="#FF928E"/>
  <path d="M53.322 54.082c.345-.08.577-.341.625-.387 0 0 .147.01-.024.325-.015.026-.046.093-.07.141-.01.02.003.043.026.044.199.015.399-.064.783.016.053.011.068.138.066.193-.004.091.003.194-.103.334-.062.082-.234.17-.619.325-.147.058-.565.014-.957-.12l-.313-.145.097-.583.079.017c.124.024.279-.128.41-.16z" fill="#F99746"/>
  <path d="M45.52 45.363s-4.398.838 1.295 7.21c.91 1.02 5.83 2.347 5.83 2.347s.498-.424.246-.768c0 0-3.387-2.461-4.132-2.852-.335-.176-1.3-3.927-1.848-4.83-.546-.904-1.39-1.107-1.39-1.107z" fill="#FEBBBA"/>
  <path d="M53.998 47.74s.145-.275.172-.42c.028-.144.21-.568.284-.642.03-.03.129.008.14.137a.743.743 0 01-.07.278c-.08.197-.067.464-.094.553-.068.222-.431.094-.431.094z" fill="#FFB27D"/>
  <path d="M176.767 97L.239 96.94A.24.24 0 010 96.7v-.188a.24.24 0 01.239-.239l176.528.061a.24.24 0 01.239.24v.188a.24.24 0 01-.239.239z" fill="#2E3552"/>
</svg>
