<svg width="263" height="136" fill="none" xmlns="http://www.w3.org/2000/svg">
  <path d="M73.26 135.96s-18.552-19.289-3.138-40.172c13.677-18.529 29.623-17.262 41.323-9.743 4.982 3.203 19.348.394 31.576-18.46 16.674-25.71 74.476-10.117 63.937 29.44-5.1 19.144 15.521 19.84 5.014 38.975l-138.712-.04z" fill="#EBF3FA" fill-opacity=".5"/>
  <path d="M131.062 89.968c-.002-.064.351-7.26-3.13-8.916l.246-.236c1.594.556 3.361 2.275 4.069 4.702.525 1.804.126 2.2.128 2.269l-1.313 2.18z" fill="#DAE3FE"/>
  <path d="M121.974 75.715s-.397 3.701 1.543 5.275c1.942 1.575 5.486.426 5.486.426s.397-3.701-1.543-5.276c-1.942-1.574-5.486-.425-5.486-.425zM130.468 103.467c-.065-.362-1.321-8.838 1.89-18.282 3.085-9.075 1.377-16.768 1.363-16.844h2.27c.059.329.217 7.88-2.201 18.229-2.175 9.312 1.888 16.896 1.022 16.896h-4.344v.001z" fill="#DAE3FE"/>
  <path d="M135.236 78.447c.011-.048 1.095-6.257 4.01-6.964-1.303.17-2.959 1.101-3.884 2.837-.689 1.29-.447 1.656-.46 1.706l.334 2.421z" fill="#DAE3FE"/>
  <path d="M123.568 61.978s-3.144-4.434-6.716-5.737c0 0 1.336 10.403-.617 10.53-1.953.13-.652-11.698-.652-11.698s-9.302-5.16-13.08-5.016c0 0 5.348 10.393 3.423 10.038-1.925-.356-7.993-10.913-7.993-10.913s-9.708-2.39-11.624 3.327c-1.917 5.718.458 8.772 1.89 9.22 1.434.45 10.771.874 10.457 2.07-.313 1.197-6.728 2.764-10.178 1.469 0 0 3.317 9.79 8.435 9.602 5.117-.186 6.878-3.24 10.042-3.299 3.165-.058 5.417.925 3.792 1.68-1.625.755-6.923-.128-9.595 1.885-2.671 2.012-4.809 3.223-.141 4.467 4.669 1.246 11.717-.16 15.061-2.387.009-.006 2.738-.223 4.886 12.394.829 4.864.192 12.079.192 12.079l1.733-.263c.962-14.143-4.148-25.9-4.148-25.9s8.67-6.4 4.833-13.548zM151.921 80.643s-10.446-4.384-6.707-12.36c0 0 3.149-4.993 6.944-6.615 0 0-.836 11.356 1.29 11.382 2.126.025.017-12.723.017-12.723s9.783-6.141 13.888-6.208c0 0-5.187 11.584-3.121 11.086 2.066-.498 8.024-12.303 8.024-12.303s10.387-3.161 12.801 2.926c2.414 6.087.02 9.538-1.508 10.108-1.527.57-11.626 1.58-11.216 2.858.41 1.278 7.458 2.602 11.122.995 0 0-3.02 10.81-8.58 10.908-5.56.098-7.648-3.11-11.083-2.987-3.435.123-5.82 1.32-4.014 2.044s7.5-.544 10.515 1.48c3.014 2.024 5.404 3.213.415 4.837-4.989 1.624-14.231 2.006-16.51-1.711l-2.277-3.717z" fill="#1A0F91"/>
  <path d="M180.433 58.339s-26.496 12.006-28.512 22.304c0 0 .635 4.433-1.537 9.846l.222 1.963s2.125-6.998 3.593-8.091c0 0-7.134-7.94 26.234-26.022z" fill="#A4C8FC"/>
  <path d="M150.383 90.49s-3.512 6.913-.206 14.471l1.058-.415s-2.037-8.507-.309-13.097c1.727-4.589-.543-.96-.543-.96zM112.095 33.154c4.281 4.55 2.054 13.588 2.054 13.588s-9.168 1.659-13.45-2.892c-4.28-4.55-2.053-13.588-2.053-13.588s9.169-1.66 13.449 2.892z" fill="#A4C8FC"/>
  <path d="M112.096 33.153c4.28 4.551 2.054 13.589 2.054 13.589l-15.504-16.48c.001 0 9.169-1.66 13.45 2.891z" fill="#D2E3FC"/>
  <path d="M167.307 50.487c-2.234 2.584-7.282 1.89-7.282 1.89s-1.426-4.888.808-7.473 7.282-1.89 7.282-1.89 1.426 4.888-.808 7.473zM140.903 73.228c-1.498.414-3.231-1.12-3.231-1.12s.695-2.207 2.193-2.622c1.497-.415 3.23 1.12 3.23 1.12s-.695 2.207-2.192 2.622z" fill="#DAE3FE"/>
  <path d="M114.458 24.714c1.026 2.432-1.185 5.685-1.185 5.685s-3.877-.689-4.904-3.12c-1.026-2.432 1.187-5.685 1.187-5.685s3.874.689 4.902 3.12z" fill="#A4C8FC"/>
  <path d="M151.223 61.406c8.921-8.911 8.921-23.36 0-32.27-8.921-8.912-23.385-8.912-32.306 0-8.921 8.91-8.921 23.359 0 32.27 8.921 8.911 23.385 8.911 32.306 0z" fill="#FE7062"/>
  <path d="M149.246 61.655c8.921-8.91 8.921-23.359 0-32.27-8.921-8.912-23.385-8.912-32.306 0-8.921 8.911-8.921 23.36 0 32.27 8.921 8.912 23.385 8.912 32.306 0z" fill="#FFE6E5"/>
  <path d="M135.729 66.414a20.696 20.696 0 01-15.364-4.205 20.65 20.65 0 01-7.887-13.825 20.642 20.642 0 014.209-15.347 20.686 20.686 0 0113.841-7.879c5.515-.694 10.971.8 15.363 4.205a20.647 20.647 0 017.887 13.825c.695 5.51-.8 10.96-4.209 15.347a20.68 20.68 0 01-13.84 7.879zm-5.046-40.025c-10.707 1.347-18.322 11.144-16.973 21.84 1.348 10.697 11.156 18.302 21.864 16.955 10.707-1.347 18.322-11.143 16.974-21.84-1.349-10.696-11.157-18.302-21.865-16.955z" fill="#FE7062"/>
  <path d="M153.298 101.263l-.001.018-.456 6.991-1.691 25.953h-31.618l-1.861-25.597-.514-7.056-.022-.309h36.163z" fill="#1A0F91"/>
  <path d="M153.297 101.281l-.456 6.99c-2.382-.83-9.001-2.82-17.625-2.82-10.89 0-17.546 3.175-17.546 3.175l-.513-7.055 36.14-.29z" fill="#618DD8"/>
  <path d="M154.396 104.958h-38.408l-.439-4.46h39.336l-.489 4.46z" fill="#739AF0"/>
  <path d="M151.637 135.611h-32.784l-.375-1.554h33.575l-.416 1.554z" fill="#618DD8"/>
  <path d="M196.973 73.01l-1.842.4-.043.011a.448.448 0 00-.35.485l.166 1.563a.44.44 0 01-.291.462 7.874 7.874 0 00-2.662 1.595.456.456 0 01-.553.04l-1.089-.733a.46.46 0 00-.474-.016.485.485 0 00-.121.1l-1.24 1.471a.458.458 0 00.028.62l1.236 1.233a.443.443 0 01.103.464 7.808 7.808 0 00-.428 2.086l-.001.003a.453.453 0 01-.319.405l-1.694.525-.086.027a.443.443 0 00-.303.517l.409 1.88a.462.462 0 00.499.36l1.742-.184a.447.447 0 01.457.26 7.886 7.886 0 001.35 2.017.45.45 0 01.04.554l-.868 1.291a.458.458 0 00.087.607l1.476 1.245a.44.44 0 00.593-.026l1.453-1.45a.463.463 0 01.472-.11 8 8 0 001.819.384.435.435 0 01.384.307l.628 2.036a.451.451 0 00.526.307l1.89-.41a.453.453 0 00.349-.484l-.204-1.931a.445.445 0 01.225-.44c.014-.009.027-.017.041-.022.044-.019.086-.036.128-.06a7.801 7.801 0 001.44-.858.436.436 0 01.513-.01l1.366.914c.193.13.456.091.606-.087l.276-.327.961-1.141a.45.45 0 00-.026-.61l-1.218-1.214a.435.435 0 01-.087-.492 7.901 7.901 0 00.674-2.478l.357-.11 1.459-.451a.436.436 0 00.3-.515l-.408-1.894a.455.455 0 00-.488-.35l-1.19.127a.45.45 0 01-.466-.287 7.929 7.929 0 00-1.218-2.17.434.434 0 01-.023-.521l1.097-1.632a.432.432 0 00-.082-.57l-1.495-1.256a.438.438 0 00-.596.025L200.746 76a.448.448 0 01-.495.096 7.472 7.472 0 00-1.145-.377 7.882 7.882 0 00-.643-.132.453.453 0 01-.358-.308l-.603-1.951a.452.452 0 00-.529-.318zm-3.702 8.814c.181-.488.455-.966.835-1.42a2.82 2.82 0 01.289-.296c.479-.421 1.178-.802 1.721-.918 4.159-.879 6.917 3.598 4.331 6.893-.043.053-.086.107-.132.16-.42.498-1.291 1.02-1.926 1.16a5.176 5.176 0 01-.97.122c-3.128.084-5.176-2.92-4.148-5.7zM179.424 95.002l-2.898.261-.069.007a.693.693 0 00-.629.676l-.046 2.427a.681.681 0 01-.536.652 12.106 12.106 0 00-4.383 1.936.709.709 0 01-.855-.045l-1.527-1.331a.707.707 0 00-.929.016l-2.181 2.014a.707.707 0 00-.076.955l1.657 2.126c.163.211.19.493.07.731a12.112 12.112 0 00-1.056 3.115l-.001.003a.697.697 0 01-.566.56l-2.698.478-.135.026a.681.681 0 00-.563.734l.266 2.959c.035.36.333.641.696.647l2.704.051c.3.005.563.202.65.486a12.157 12.157 0 001.68 3.347.693.693 0 01-.045.856l-1.576 1.812a.707.707 0 00.016.946l2.024 2.19c.24.258.638.289.912.074l2.505-1.942a.711.711 0 01.743-.08 12.034 12.034 0 002.713.936.672.672 0 01.531.547l.572 3.239a.696.696 0 00.747.57l2.973-.266a.699.699 0 00.62-.576c.005-.031.011-.066.009-.1l.058-2.996a.687.687 0 01.496-.657c.071-.021.137-.04.207-.068a12.097 12.097 0 002.371-1.038.67.67 0 01.787.081l1.917 1.662a.71.71 0 00.945-.016l.486-.448 1.691-1.565a.695.695 0 00.078-.939l-1.632-2.095a.673.673 0 01-.039-.771 12.266 12.266 0 001.508-3.667l.566-.099 2.321-.413a.672.672 0 00.559-.732l-.263-2.98a.7.7 0 00-.68-.63l-1.847-.031a.696.696 0 01-.66-.53 12.202 12.202 0 00-1.448-3.558.671.671 0 01.065-.804l1.993-2.291a.669.669 0 00-.015-.89l-2.049-2.21a.68.68 0 00-.919-.078l-2.606 2.022a.69.69 0 01-.776.052 12.303 12.303 0 00-2.641-1.122.699.699 0 01-.489-.542l-.55-3.105a.706.706 0 00-.753-.579zm-7.364 12.796a7.475 7.475 0 011.552-2.017c.14-.134.313-.267.5-.397.814-.553 1.958-1.003 2.813-1.076 6.54-.55 9.906 6.837 5.312 11.389a9.856 9.856 0 01-.233.22c-.738.682-2.174 1.314-3.173 1.408a8.02 8.02 0 01-1.51.002c-4.808-.471-7.368-5.465-5.261-9.529z" fill="#fff"/>
  <path d="M141.577 36.817h-4.033c.729.923 1.191 2.051 1.384 3.384h3.435l-.786 2.7h-2.598c-.205 2.028-1.008 3.555-2.409 4.58-1.402 1.026-3.35 1.538-5.845 1.538l8.425 9.776V59h-3.879l-9.058-10.544-.017-2.137h4.256c1.424-.011 2.58-.319 3.469-.922a4.026 4.026 0 001.692-2.496h-9.895l.786-2.7h9.075c-.547-2.165-2.222-3.293-5.025-3.384h-4.802l.803-2.7h15.808l-.786 2.7z" fill="#FE7062"/>
</svg>
